<?xml version="1.0" encoding="UTF-8" standalone="no" ?>
<!DOCTYPE svg PUBLIC "-//W3C//DTD SVG 1.1//EN" "http://www.w3.org/Graphics/SVG/1.1/DTD/svg11.dtd">
<svg xmlns="http://www.w3.org/2000/svg" xmlns:xlink="http://www.w3.org/1999/xlink" version="1.1" width="1280" height="1024" viewBox="0 0 1280 1024" xml:space="preserve">
<desc>Created with Fabric.js 4.4.0</desc>
<defs>
</defs>
<g transform="matrix(1 0 0 1 640 512)" id="background-logo"  >
<rect style="stroke: none; stroke-width: 0; stroke-dasharray: none; stroke-linecap: butt; stroke-dashoffset: 0; stroke-linejoin: miter; stroke-miterlimit: 4; fill: rgb(255,255,255); fill-opacity: 0; fill-rule: nonzero; opacity: 1;"  paint-order="stroke"  x="-640" y="-512" rx="0" ry="0" width="1280" height="1024" />
</g>
<g transform="matrix(1.9211538461538462 0 0 1.9211538461538462 639.9999999999999 496.23946566103876)" id="logo-logo"  >
<g style=""  paint-order="stroke"   >
		<g transform="matrix(2.4447948095510394 0 0 -2.44479480955104 -1.6050077924701895 2.842171e-14)"  >
<path style="stroke: none; stroke-width: 1; stroke-dasharray: none; stroke-linecap: butt; stroke-dashoffset: 0; stroke-linejoin: miter; stroke-miterlimit: 4; fill: rgb(61,73,19); fill-rule: nonzero; opacity: 1;"  paint-order="stroke"  transform=" translate(-79.202, -71.387)" d="M 47.321 103.253 C 45.641 101.574 44.113 99.783 42.736 97.9 L 42.736 97.9 L 44.518 97.724 C 52.471000000000004 108.176 65.039 114.926 79.187 114.926 L 79.187 114.926 C 84.624 114.926 89.828 113.927 94.627 112.107 L 94.627 112.107 L 95.60799999999999 113.379 C 90.445 115.396 84.89699999999999 116.453 79.18699999999998 116.453 L 79.18699999999998 116.453 C 67.14999999999998 116.453 55.83199999999998 111.766 47.320999999999984 103.253 M 100.00199999999998 109.636 C 112.60499999999998 102.76299999999999 121.43599999999998 89.842 122.59499999999998 74.77199999999999 L 122.59499999999998 74.77199999999999 L 124.23399999999998 72.64699999999999 C 123.91899999999998 84.21199999999999 119.26699999999998 95.03899999999999 111.05399999999997 103.25299999999999 L 111.05399999999997 103.25299999999999 C 107.75199999999997 106.55499999999999 104.02599999999997 109.27899999999998 100.00199999999998 111.37999999999998 L 100.00199999999998 111.37999999999998 z M 34.17 73.481 L 36.019 77.079 C 36.888 83.737 39.263 89.92099999999999 42.789 95.28099999999999 L 42.789 95.28099999999999 L 41.798 96.56599999999999 C 37.19 89.755 34.549 81.824 34.17 73.481 M 75.90899999999999 69.124 C 74.708 70.78099999999999 71.33399999999999 70.95299999999999 71.33399999999999 70.95299999999999 L 71.33399999999999 70.95299999999999 C 73.55699999999999 70.59799999999998 74.19299999999998 68.32399999999998 74.19299999999998 68.32399999999998 L 74.19299999999998 68.32399999999998 C 72.76399999999998 68.95399999999998 68.87499999999999 68.32299999999998 68.87499999999999 68.32299999999998 L 68.87499999999999 68.32299999999998 C 70.51199999999999 68.35299999999998 71.96799999999999 67.77299999999998 72.97799999999998 67.22099999999998 L 72.97799999999998 67.22099999999998 C 69.00799999999998 67.05499999999998 65.21199999999997 66.72599999999997 61.65399999999998 66.29499999999997 L 61.65399999999998 66.29499999999997 C 62.664999999999985 67.18799999999997 64.05699999999999 67.94899999999997 64.05699999999999 67.94899999999997 L 64.05699999999999 67.94899999999997 C 62.50699999999999 68.38799999999996 59.87399999999999 67.00499999999997 59.87399999999999 67.00499999999997 L 59.87399999999999 67.00499999999997 C 59.764999999999986 67.49299999999997 60.54699999999999 69.01799999999997 60.54699999999999 69.01799999999997 L 60.54699999999999 69.01799999999997 C 59.13099999999999 68.74899999999997 58.81899999999999 66.95599999999997 58.81899999999999 66.95599999999997 L 58.81899999999999 66.95599999999997 C 57.94899999999999 67.74799999999998 54.44699999999999 67.56399999999998 54.44699999999999 67.56399999999998 L 54.44699999999999 67.56399999999998 C 56.18199999999999 67.12899999999998 57.874999999999986 66.14399999999998 58.34599999999999 65.85599999999998 L 58.34599999999999 65.85599999999998 C 57.09599999999999 65.67599999999997 55.87599999999999 65.48599999999998 54.697999999999986 65.28599999999999 L 54.697999999999986 65.28599999999999 C 59.929999999999986 64.82399999999998 65.15599999999999 64.02199999999999 70.24699999999999 62.761999999999986 L 70.24699999999999 62.761999999999986 C 75.51299999999999 61.457999999999984 80.75999999999999 59.90799999999999 85.75299999999999 57.765999999999984 L 85.75299999999999 57.765999999999984 C 88.26799999999999 56.68699999999998 90.77699999999999 55.585999999999984 93.19399999999999 54.29799999999999 L 93.19399999999999 54.29799999999999 C 95.89699999999999 52.85799999999999 98.52999999999999 51.341999999999985 101.11299999999999 49.695999999999984 L 101.11299999999999 49.695999999999984 C 105.14899999999999 47.12399999999998 108.86899999999999 44.140999999999984 112.43799999999999 40.97099999999998 L 112.43799999999999 40.97099999999998 C 118.59499999999998 47.68699999999998 122.50399999999999 55.96199999999998 123.78699999999999 64.87699999999998 L 123.78699999999999 64.87699999999998 L 122.23599999999999 64.87699999999998 C 122.13799999999999 64.22599999999998 122.02099999999999 63.58099999999998 121.895 62.93899999999998 L 121.895 62.93899999999998 C 119.822 63.40099999999998 117.56 62.43599999999998 117.56 62.43599999999998 L 117.56 62.43599999999998 C 117.758 64.53899999999997 120.973 68.50799999999998 120.973 68.50799999999998 L 120.973 68.50799999999998 C 117.639 67.47599999999998 115.734 63.18999999999998 115.734 63.18999999999998 L 115.734 63.18999999999998 C 116.131 66.04699999999998 114.027 68.82599999999998 114.027 68.82599999999998 L 114.027 68.82599999999998 C 114.544 67.59499999999998 114.027 64.34099999999998 114.027 64.34099999999998 L 114.027 64.34099999999998 C 113.82900000000001 66.60299999999998 110.654 69.45999999999998 110.654 69.45999999999998 L 110.654 69.45999999999998 C 111.249 68.34899999999998 111.448 65.20399999999998 111.448 65.20399999999998 L 111.448 65.20399999999998 C 110.09899999999999 67.49499999999998 104.52199999999999 68.92499999999998 104.52199999999999 68.92499999999998 L 104.52199999999999 68.92499999999998 C 105.88399999999999 68.33099999999999 106.91199999999999 67.44399999999999 107.68599999999999 66.48899999999998 L 107.68599999999999 66.48899999999998 C 107.064 66.28999999999998 106.42099999999999 65.62299999999998 105.96799999999999 65.06199999999997 L 105.96799999999999 65.06199999999997 C 105.118 66.20999999999997 103.84599999999999 67.54499999999997 102.23599999999999 68.12299999999996 L 102.23599999999999 68.12299999999996 C 102.23599999999999 68.12299999999996 104.157 65.91499999999996 104.413 64.58699999999996 L 104.413 64.58699999999996 C 104.314 64.60899999999997 104.214 64.63199999999996 104.11399999999999 64.65399999999995 L 104.11399999999999 64.65399999999995 C 103.17999999999999 65.59699999999995 100.43999999999998 68.19299999999996 98.30399999999999 68.41999999999996 L 98.30399999999999 68.41999999999996 C 98.30399999999999 68.41999999999996 100.68699999999998 66.58699999999996 101.96099999999998 65.10999999999996 L 101.96099999999998 65.10999999999996 C 96.49599999999998 66.20799999999996 91.06999999999998 66.84899999999996 85.80399999999999 67.14199999999995 L 85.80399999999999 67.14199999999995 C 86.353 67.41999999999996 86.79899999999999 67.59799999999996 86.79899999999999 67.59799999999996 L 86.79899999999999 67.59799999999996 C 85.61699999999999 68.09399999999995 83.407 67.25499999999995 83.407 67.25499999999995 L 83.407 67.25499999999995 C 83.36699999999999 67.65099999999995 84.131 68.77999999999996 84.131 68.77999999999996 L 84.131 68.77999999999996 C 82.987 68.70399999999997 82.568 67.31699999999996 82.568 67.31699999999996 L 82.568 67.31699999999996 C 82.246 67.69199999999996 81.32 67.92099999999996 80.517 68.05399999999996 L 80.517 68.05399999999996 C 81.15899999999999 68.25199999999995 81.627 68.35099999999996 81.627 68.35099999999996 L 81.627 68.35099999999996 C 79.31099999999999 69.00899999999996 77.252 67.83699999999996 77.252 67.83699999999996 L 77.252 67.83699999999996 C 77.56599999999999 68.58699999999996 79.797 70.06699999999996 79.797 70.06699999999996 L 79.797 70.06699999999996 C 77.624 70.009 76.91 68.872 76.91 68.872 L 76.91 68.872 L 76.081 71.479 z M 78.67899999999999 67.338 C 79.09899999999999 67.54799999999999 79.54099999999998 67.725 79.95199999999998 67.869 L 79.95199999999998 67.869 C 80.29899999999998 67.693 80.62599999999999 67.504 80.91799999999998 67.319 L 80.91799999999998 67.319 C 80.16699999999997 67.33200000000001 79.42099999999998 67.33800000000001 78.67899999999997 67.33800000000001 M 106.91499999999998 63.98800000000001 C 107.12799999999997 64.96900000000001 107.59599999999998 65.91600000000001 107.81599999999997 66.32700000000001 L 107.81599999999997 66.32700000000001 C 108.61399999999998 65.29800000000002 109.12599999999998 64.20200000000001 109.44599999999997 63.314000000000014 L 109.44599999999997 63.314000000000014 C 108.60299999999997 63.552000000000014 107.75899999999997 63.77500000000001 106.91499999999996 63.988000000000014 M 118.31799999999997 60.338000000000015 C 119.47599999999997 61.509000000000015 120.84299999999998 62.08400000000002 121.77799999999996 62.35700000000001 L 121.77799999999996 62.35700000000001 C 121.55699999999996 61.30300000000001 121.30199999999996 60.26100000000001 121.00499999999997 59.237000000000016 L 121.00499999999997 59.237000000000016 C 120.11199999999997 59.621000000000016 119.21499999999996 59.985000000000014 118.31799999999997 60.338000000000015 M 40.15699999999997 64.15300000000002 C 39.03999999999997 64.99300000000002 37.08399999999997 64.77300000000002 36.182999999999964 64.61300000000001 L 36.182999999999964 64.61300000000001 C 36.148999999999965 64.82800000000002 36.11399999999996 65.04300000000002 36.08399999999997 65.25900000000001 L 36.08399999999997 65.25900000000001 L 34.535999999999966 65.25900000000001 C 34.685999999999964 64.14800000000001 34.880999999999965 63.049000000000014 35.111999999999966 61.960000000000015 L 35.111999999999966 61.960000000000015 C 34.612999999999964 61.74200000000001 34.276999999999965 61.576000000000015 34.276999999999965 61.576000000000015 L 34.276999999999965 61.576000000000015 C 34.566999999999965 61.67200000000001 34.85799999999997 61.73900000000001 35.14499999999997 61.79000000000001 L 35.14499999999997 61.79000000000001 C 35.90599999999997 58.262000000000015 37.084999999999965 54.856000000000016 38.65999999999997 51.63000000000001 L 38.65999999999997 51.63000000000001 C 40.99899999999997 51.12700000000001 43.31499999999997 50.51600000000001 45.587999999999965 49.86500000000001 L 45.587999999999965 49.86500000000001 C 51.50799999999997 48.16400000000001 57.350999999999964 46.02100000000001 62.88599999999997 43.30700000000001 L 62.88599999999997 43.30700000000001 C 67.72199999999997 40.93600000000001 72.49099999999997 38.32700000000001 76.88799999999996 35.19900000000001 L 76.88799999999996 35.19900000000001 C 79.10699999999996 33.62000000000001 81.32099999999997 32.02600000000001 83.39999999999996 30.263000000000012 L 83.39999999999996 30.263000000000012 C 84.65599999999996 29.199000000000012 85.88699999999996 28.116000000000014 87.09799999999996 27.011000000000013 L 87.09799999999996 27.011000000000013 C 94.97399999999996 28.398000000000014 102.30699999999996 31.853000000000012 108.44299999999996 37.10700000000001 L 108.44299999999996 37.10700000000001 C 107.72199999999995 37.82700000000001 106.99299999999995 38.53800000000001 106.24599999999995 39.234000000000016 L 106.24599999999995 39.234000000000016 C 104.05199999999995 41.28200000000002 101.73899999999995 43.182000000000016 99.35899999999995 45.01100000000002 L 99.35899999999995 45.01100000000002 C 94.75099999999995 48.552000000000014 89.67999999999995 51.47000000000001 84.48199999999996 54.04400000000002 L 84.48199999999996 54.04400000000002 C 79.865 56.331 75 58.135 70.079 59.641 L 70.079 59.641 C 64.26899999999999 61.419 58.288 62.653999999999996 52.25999999999999 63.400999999999996 L 52.25999999999999 63.400999999999996 C 50.67699999999999 63.598 49.08899999999999 63.754999999999995 47.49699999999999 63.87799999999999 L 47.49699999999999 63.87799999999999 C 45.62899999999999 63.461999999999996 43.92399999999999 63.03999999999999 42.39699999999999 62.632999999999996 L 42.39699999999999 62.632999999999996 C 43.34299999999999 63.91499999999999 45.31799999999999 65.01599999999999 45.31799999999999 65.01599999999999 L 45.31799999999999 65.01599999999999 C 43.13499999999999 64.966 41.66499999999999 63.398999999999994 41.66499999999999 63.398999999999994 L 41.66499999999999 63.398999999999994 C 41.736999999999995 64.13199999999999 43.27299999999999 66.012 43.27299999999999 66.012 L 43.27299999999999 66.012 C 41.40499999999999 65.381 41.09099999999999 64.203 41.09099999999999 64.203 L 41.09099999999999 64.203 L 39.67499999999999 66.241 z M 36.19299999999997 64.53900000000002 C 37.90899999999997 64.50600000000001 38.88499999999997 63.00100000000002 38.88499999999997 63.00100000000002 L 38.88499999999997 63.00100000000002 C 38.29899999999997 63.06900000000002 37.40399999999997 62.83300000000002 36.55699999999997 62.53500000000002 L 36.55699999999997 62.53500000000002 C 36.420999999999964 63.198000000000015 36.29999999999997 63.86600000000002 36.19299999999997 64.53900000000002 M 36.69199999999997 61.89500000000002 C 37.49399999999997 61.866000000000014 38.202999999999975 61.72100000000002 38.72499999999997 61.58000000000002 L 38.72499999999997 61.58000000000002 C 38.052 61.371 37.44 61.173 36.902 60.989 L 36.902 60.989 C 36.828 61.29 36.76 61.592 36.692 61.894999999999996 M 47.321 39.521 C 55.831999999999994 31.01 67.15 26.321 79.187 26.321 L 79.187 26.321 C 79.87899999999999 26.321 80.567 26.339000000000002 81.253 26.37 L 81.253 26.37 C 79.201 28.281000000000002 77.062 30.1 74.874 31.847 L 74.874 31.847 C 70.893 35.023 66.571 37.795 62.13199999999999 40.281 L 62.13199999999999 40.281 C 56.84799999999999 43.24 51.29599999999999 45.726 45.58299999999999 47.737 L 45.58299999999999 47.737 C 43.64499999999999 48.419000000000004 41.68599999999999 49.047000000000004 39.71099999999999 49.613 L 39.71099999999999 49.613 C 41.73499999999999 45.956 44.282999999999994 42.559 47.32099999999999 39.521" stroke-linecap="round" />
</g>
		<g transform="matrix(2.4447948095510394 0 0 -2.44479480955104 -77.33497181312322 -9.287775481484402)"  >
<linearGradient id="SVGID_2_8_8_8_1173995" gradientUnits="userSpaceOnUse" gradientTransform="matrix(5.1422257 0 0 -5.1422257 45.654808 75.186211)"  x1="0" y1="0" x2="1" y2="0">
<stop offset="0%" style="stop-color:rgb(131,137,34);stop-opacity: 1"/>
<stop offset="100%" style="stop-color:rgb(61,73,19);stop-opacity: 1"/>
</linearGradient>
<path style="stroke: none; stroke-width: 1; stroke-dasharray: none; stroke-linecap: butt; stroke-dashoffset: 0; stroke-linejoin: miter; stroke-miterlimit: 4; fill: url(#SVGID_2_8_8_8_1173995); fill-rule: nonzero; opacity: 1;"  paint-order="stroke"  transform=" translate(-48.226, -75.186)" d="M 45.667 76.566 L 50.784 76.566 C 50.66 78.12 49.563 79.336 48.226 79.336 L 48.226 79.336 C 46.888999999999996 79.336 45.791 78.12 45.667 76.566 M 48.472 71.036 L 50.797000000000004 71.036 L 50.797000000000004 75.97800000000001 L 48.472 75.97800000000001 z M 45.655 71.036 L 47.979 71.036 L 47.979 75.97800000000001 L 45.655 75.97800000000001 z" stroke-linecap="round" />
</g>
		<g transform="matrix(2.4447948095510394 0 0 -2.44479480955104 35.395739252680016 -23.0617494384949)"  >
<linearGradient id="SVGID_3_9_9_9_1173996" gradientUnits="userSpaceOnUse" gradientTransform="matrix(7.8928723 0 0 -7.8928723 90.389755 80.819717)"  x1="0" y1="0" x2="1" y2="0">
<stop offset="0%" style="stop-color:rgb(131,137,34);stop-opacity: 1"/>
<stop offset="100%" style="stop-color:rgb(61,73,19);stop-opacity: 1"/>
</linearGradient>
<path style="stroke: none; stroke-width: 1; stroke-dasharray: none; stroke-linecap: butt; stroke-dashoffset: 0; stroke-linejoin: miter; stroke-miterlimit: 4; fill: url(#SVGID_3_9_9_9_1173996); fill-rule: nonzero; opacity: 1;"  paint-order="stroke"  transform=" translate(-94.3365, -80.82)" d="M 90.409 82.596 L 98.26400000000001 82.596 C 98.07300000000001 84.59700000000001 96.388 86.164 94.33600000000001 86.164 L 94.33600000000001 86.164 C 92.284 86.164 90.59900000000002 84.59700000000001 90.409 82.596 M 94.714 75.476 L 98.283 75.476 L 98.283 81.839 L 94.714 81.839 z M 90.39 75.476 L 93.958 75.476 L 93.958 81.839 L 90.39 81.839 Z" stroke-linecap="round" />
</g>
		<g transform="matrix(2.4447948095510394 0 0 -2.44479480955104 1.2761828905856305 -49.7650207458162)"  >
<linearGradient id="SVGID_4_10_10_10_1173997" gradientUnits="userSpaceOnUse" gradientTransform="matrix(36.9501 0 0 -36.9501 61.905396 91.742645)"  x1="0" y1="0" x2="1" y2="0">
<stop offset="0%" style="stop-color:rgb(131,137,34);stop-opacity: 1"/>
<stop offset="100%" style="stop-color:rgb(61,73,19);stop-opacity: 1"/>
</linearGradient>
<path style="stroke: none; stroke-width: 1; stroke-dasharray: none; stroke-linecap: butt; stroke-dashoffset: 0; stroke-linejoin: miter; stroke-miterlimit: 4; fill: url(#SVGID_4_10_10_10_1173997); fill-rule: nonzero; opacity: 1;"  paint-order="stroke"  transform=" translate(-80.3805, -91.7425)" d="M 61.906 67.768 L 68.172 67.768 L 98.85499999999999 107.586 L 98.85499999999999 115.717 z" stroke-linecap="round" />
</g>
		<g transform="matrix(2.4447948095510394 0 0 -2.44479480955104 54.9100914225163 -34.156228284237585)"  >
<path style="stroke: none; stroke-width: 1; stroke-dasharray: none; stroke-linecap: butt; stroke-dashoffset: 0; stroke-linejoin: miter; stroke-miterlimit: 4; fill: rgb(89,99,27); fill-rule: nonzero; opacity: 1;"  paint-order="stroke"  transform=" translate(-102.3185, -85.358)" d="M 76.742 77.014 L 95.81800000000001 99.483 L 121.63100000000001 66.023 L 127.89500000000001 66.023 L 98.07300000000001 104.693 z" stroke-linecap="round" />
</g>
		<g transform="matrix(2.4447948095510394 0 0 -2.44479480955104 -51.58028089190782 -30.480479288077532)"  >
<linearGradient id="SVGID_6_11_11_11_1173998" gradientUnits="userSpaceOnUse" gradientTransform="matrix(31.252218 0 0 -31.252218 43.134354 83.854218)"  x1="0" y1="0" x2="1" y2="0">
<stop offset="0%" style="stop-color:rgb(131,137,34);stop-opacity: 1"/>
<stop offset="100%" style="stop-color:rgb(61,73,19);stop-opacity: 1"/>
</linearGradient>
<path style="stroke: none; stroke-width: 1; stroke-dasharray: none; stroke-linecap: butt; stroke-dashoffset: 0; stroke-linejoin: miter; stroke-miterlimit: 4; fill: url(#SVGID_6_11_11_11_1173998); fill-rule: nonzero; opacity: 1;"  paint-order="stroke"  transform=" translate(-58.7605, -83.8545)" d="M 62.949 70.999 L 74.387 85.841 L 67.905 94.25 L 43.134 96.71 Z" stroke-linecap="round" />
</g>
		<g transform="matrix(2.4447948095510394 0 0 -2.44479480955104 -85.16075999849613 -19.434896338525988)"  >
<linearGradient id="SVGID_7_12_12_12_1173999" gradientUnits="userSpaceOnUse" gradientTransform="matrix(26.406462 0 0 -26.406462 31.822077 79.336235)"  x1="0" y1="0" x2="1" y2="0">
<stop offset="0%" style="stop-color:rgb(131,137,34);stop-opacity: 1"/>
<stop offset="100%" style="stop-color:rgb(61,73,19);stop-opacity: 1"/>
</linearGradient>
<path style="stroke: none; stroke-width: 1; stroke-dasharray: none; stroke-linecap: butt; stroke-dashoffset: 0; stroke-linejoin: miter; stroke-miterlimit: 4; fill: url(#SVGID_7_12_12_12_1173999); fill-rule: nonzero; opacity: 1;"  paint-order="stroke"  transform=" translate(-45.025, -79.3365)" d="M 31.822 66.405 L 36.432 66.405 L 47.23 87.773 L 58.228 75.24 L 45.113 92.268 Z" stroke-linecap="round" />
</g>
		<g transform="matrix(2.4447948095510394 0 0 -2.44479480955104 -13.92530675572175 -65.2168573806216)"  >
<path style="stroke: none; stroke-width: 1; stroke-dasharray: none; stroke-linecap: butt; stroke-dashoffset: 0; stroke-linejoin: miter; stroke-miterlimit: 4; fill: rgb(235,167,53); fill-rule: nonzero; opacity: 1;"  paint-order="stroke"  transform=" translate(-5.651999999999999, -2.7215000000000007)" d="M 0 0 L 6.599 -8.562 L 17.317 5.347 C 15.909 10.342 11.322 14.004999999999999 5.8759999999999994 14.004999999999999 C -0.6900000000000004 14.004999999999999 -6.013 8.681999999999999 -6.013 2.1159999999999997 C -6.013 1.5979999999999996 -5.976 1.0879999999999996 -5.911 0.5869999999999997 z" stroke-linecap="round" />
</g>
</g>
</g>
<g transform="matrix(-0.3238268584742502 -1.8936652994450773 1.8936652994450776 -0.32382685847425025 281.2431828603549 607.3090433701317)" id="text-logo-0"  >
<g style=""  paint-order="stroke"   >
		<g transform="matrix(1 0 0 1.0000000000000002 0 0)" id="text-logo-0-path-0"  >
<path style="stroke: none; stroke-width: 0; stroke-dasharray: none; stroke-linecap: butt; stroke-dashoffset: 0; stroke-linejoin: miter; stroke-miterlimit: 4; fill: rgb(89,99,27); fill-rule: nonzero; opacity: 1;"  paint-order="stroke"  transform=" translate(-20.02, 18.2)" d="M 26.52 0 L 37.44 0 L 37.44 -36.4 L 28.6 -36.4 L 28.6 -11.28 L 13.52 -36.4 L 2.6 -36.4 L 2.6 0 L 11.44 0 L 11.44 -25.12 Z" stroke-linecap="round" />
</g>
</g>
</g>
<g transform="matrix(0.16572487212751866 -1.9139925201917676 1.9139925201917676 0.16572487212751866 277.3865124242252 514.3701919608345)" id="text-logo-1"  >
<g style=""  paint-order="stroke"   >
		<g transform="matrix(0.9999999999999999 0 0 1 0 0)" id="text-logo-1-path-0"  >
<path style="stroke: none; stroke-width: 0; stroke-dasharray: none; stroke-linecap: butt; stroke-dashoffset: 0; stroke-linejoin: miter; stroke-miterlimit: 4; fill: rgb(89,99,27); fill-rule: nonzero; opacity: 1;"  paint-order="stroke"  transform=" translate(-17.42, 18.2)" d="M 2.6 0 L 32.24 0 L 32.24 -7.28 L 11.44 -7.28 L 11.44 -14.56 L 27.04 -14.56 L 27.04 -21.84 L 11.44 -21.84 L 11.44 -29.12 L 32.24 -29.12 L 32.24 -36.4 L 2.6 -36.4 Z" stroke-linecap="round" />
</g>
</g>
</g>
<g transform="matrix(0.6563505931606316 -1.8055569776247449 1.805556977624745 0.6563505931606316 297.96978970213434 421.2255205264)" id="text-logo-2"  >
<g style=""  paint-order="stroke"   >
		<g transform="matrix(1 0 0 1 0 0)" id="text-logo-2-path-0"  >
<path style="stroke: none; stroke-width: 0; stroke-dasharray: none; stroke-linecap: butt; stroke-dashoffset: 0; stroke-linejoin: miter; stroke-miterlimit: 4; fill: rgb(89,99,27); fill-rule: nonzero; opacity: 1;"  paint-order="stroke"  transform=" translate(-21.060000000000002, 18.2)" d="M 30.68 0 L 39.52 0 L 25.74 -36.4 L 16.38 -36.4 L 2.6 0 L 11.44 0 L 13.99 -6.76 L 28.13 -6.76 Z M 25.38 -14.04 L 16.74 -14.04 L 21.06 -25.43 Z" stroke-linecap="round" />
</g>
</g>
</g>
<g transform="matrix(1.102078563807607 -1.5736120677560523 1.5736120677560523 1.102078563807607 342.003523925788 336.60663590703456)" id="text-logo-3"  >
<g style=""  paint-order="stroke"   >
		<g transform="matrix(1 0 0 1 0 0)" id="text-logo-3-path-0"  >
<path style="stroke: none; stroke-width: 0; stroke-dasharray: none; stroke-linecap: butt; stroke-dashoffset: 0; stroke-linejoin: miter; stroke-miterlimit: 4; fill: rgb(89,99,27); fill-rule: nonzero; opacity: 1;"  paint-order="stroke"  transform=" translate(-17.42, 18.2)" d="M 2.6 0 L 32.24 0 L 32.24 -7.28 L 11.44 -7.28 L 11.44 -36.4 L 2.6 -36.4 Z" stroke-linecap="round" />
</g>
</g>
</g>
<g transform="matrix(1.3553239862635245 -1.3615906113257634 1.3615906113257636 1.3553239862635247 363.6247911034885 270.0090920656796)" id="text-logo-4"  >
<g style=""  paint-order="stroke"   >
		<g transform="matrix(1 0 0 1 0 0)" id="text-logo-4-path-0"  >
<path style="stroke: none; stroke-width: 0; stroke-dasharray: none; stroke-linecap: butt; stroke-dashoffset: 0; stroke-linejoin: miter; stroke-miterlimit: 4; fill: rgb(89,99,27); fill-rule: nonzero; opacity: 1;"  paint-order="stroke"  transform=" translate(-6.76, 31.875)" d="M 6.08 -25.27 L 7.44 -25.27 C 7.9 -27.2 8.53 -28.5 9.52 -30.16 C 10.5 -31.82 10.92 -32.81 10.92 -34.32 C 10.92 -37.08 9.52 -38.48 6.76 -38.48 C 4 -38.48 2.6 -37.08 2.6 -34.32 C 2.6 -32.81 3.02 -31.82 4 -30.16 C 4.99 -28.5 5.62 -27.2 6.08 -25.27 Z" stroke-linecap="round" />
</g>
</g>
</g>
<g transform="matrix(1.5793467620134247 -1.0938445529001941 1.0938445529001943 1.579346762013425 433.12732673528376 245.97211544425033)" id="text-logo-5"  >
<g style=""  paint-order="stroke"   >
		<g transform="matrix(1 0 0 1 0 0)" id="text-logo-5-path-0"  >
<path style="stroke: none; stroke-width: 0; stroke-dasharray: none; stroke-linecap: butt; stroke-dashoffset: 0; stroke-linejoin: miter; stroke-miterlimit: 4; fill: rgb(89,99,27); fill-rule: nonzero; opacity: 1;"  paint-order="stroke"  transform=" translate(-19.005, 18.2)" d="M 18.98 0.52 C 27.66 0.52 32.19 -1.35 34.06 -4.73 C 34.94 -6.45 35.41 -8.63 35.41 -11.34 C 35.41 -18.41 32.14 -21.84 22.93 -21.84 L 18.98 -21.84 C 15.34 -21.84 13.26 -21.84 12.22 -22.88 C 11.75 -23.35 11.49 -24.18 11.49 -25.32 C 11.49 -27.66 12.12 -28.76 14.25 -29.28 C 15.29 -29.54 16.9 -29.64 19.03 -29.64 C 22.1 -29.64 23.66 -29.38 24.7 -27.77 C 25.22 -26.99 25.48 -25.74 25.48 -24.13 L 34.37 -24.13 C 34.37 -33.7 29.17 -36.92 19.03 -36.92 C 10.35 -36.92 5.82 -35.05 4 -31.67 C 3.07 -29.95 2.6 -27.77 2.6 -25.06 C 2.6 -17.99 5.88 -14.56 15.08 -14.56 L 18.98 -14.56 C 22.46 -14.56 24.7 -14.35 25.79 -13.31 C 26.26 -12.79 26.52 -12.06 26.52 -11.08 C 26.52 -8.74 25.9 -7.7 23.82 -7.18 C 22.72 -6.92 21.11 -6.76 18.98 -6.76 C 15.24 -6.76 13.36 -7.07 12.32 -8.63 C 11.75 -9.41 11.49 -10.61 11.49 -12.27 L 2.6 -12.27 C 2.6 -5.67 5.15 -2.13 9.93 -0.62 C 12.27 0.16 15.29 0.52 18.98 0.52 Z" stroke-linecap="round" />
</g>
</g>
</g>
<g transform="matrix(1.7433634059013257 -0.807165494527514 0.8071654945275141 1.7433634059013259 511.2553781175475 242.3794738776387)" id="text-logo-6"  >
<g style=""  paint-order="stroke"   >
		<g transform="matrix(1 0 0 1 0 0)" id="text-logo-6-path-0"  >
<path style="stroke: none; stroke-width: 0; stroke-dasharray: none; stroke-linecap: butt; stroke-dashoffset: 0; stroke-linejoin: miter; stroke-miterlimit: 4; fill: rgb(89,99,27); fill-rule: nonzero; opacity: 1;"  paint-order="stroke"  transform=" translate(0, 0)" d="" stroke-linecap="round" />
</g>
</g>
</g>
<g transform="matrix(1.8508785719846337 -0.5148597987412104 0.5148597987412104 1.8508785719846337 543.000911714369 194.4520881235614)" id="text-logo-7"  >
<g style=""  paint-order="stroke"   >
		<g transform="matrix(1 0 0 1 0 0)" id="text-logo-7-path-0"  >
<path style="stroke: none; stroke-width: 0; stroke-dasharray: none; stroke-linecap: butt; stroke-dashoffset: 0; stroke-linejoin: miter; stroke-miterlimit: 4; fill: rgb(89,99,27); fill-rule: nonzero; opacity: 1;"  paint-order="stroke"  transform=" translate(-17.42, 18.2)" d="M 2.6 0 L 32.24 0 L 32.24 -7.28 L 11.44 -7.28 L 11.44 -36.4 L 2.6 -36.4 Z" stroke-linecap="round" />
</g>
</g>
</g>
<g transform="matrix(1.921075756291836 -0.017321639052521355 0.017321639052521355 1.9210757562918361 637.4564293195431 181.1235346788527)" id="text-logo-8"  >
<g style=""  paint-order="stroke"   >
		<g transform="matrix(1 0 0 1 0 0)" id="text-logo-8-path-0"  >
<path style="stroke: none; stroke-width: 0; stroke-dasharray: none; stroke-linecap: butt; stroke-dashoffset: 0; stroke-linejoin: miter; stroke-miterlimit: 4; fill: rgb(89,99,27); fill-rule: nonzero; opacity: 1;"  paint-order="stroke"  transform=" translate(-21.060000000000002, 18.2)" d="M 30.68 0 L 39.52 0 L 25.74 -36.4 L 16.38 -36.4 L 2.6 0 L 11.44 0 L 13.99 -6.76 L 28.13 -6.76 Z M 25.38 -14.04 L 16.74 -14.04 L 21.06 -25.43 Z" stroke-linecap="round" />
</g>
</g>
</g>
<g transform="matrix(1.851720116741182 0.5118248820131155 -0.5118248820131156 1.8517201167411823 737.9136067617889 194.28960472938212)" id="text-logo-9"  >
<g style=""  paint-order="stroke"   >
		<g transform="matrix(1 0 0 1 0 0)" id="text-logo-9-path-0"  >
<path style="stroke: none; stroke-width: 0; stroke-dasharray: none; stroke-linecap: butt; stroke-dashoffset: 0; stroke-linejoin: miter; stroke-miterlimit: 4; fill: rgb(89,99,27); fill-rule: nonzero; opacity: 1;"  paint-order="stroke"  transform=" translate(-28.34, 18.2)" d="M 34.58 0 L 43.94 0 L 54.08 -36.4 L 45.24 -36.4 L 38.84 -13.42 L 32.76 -36.4 L 23.92 -36.4 L 17.84 -13.42 L 11.44 -36.4 L 2.6 -36.4 L 12.74 0 L 22.1 0 L 28.34 -21.32 Z" stroke-linecap="round" />
</g>
</g>
</g>
<g transform="matrix(1.5917948103429496 1.075649284087043 -1.075649284087043 1.5917948103429498 844.953790257386 243.6352820245188)" id="text-logo-10"  >
<g style=""  paint-order="stroke"   >
		<g transform="matrix(0.9999999999999999 0 0 1 0 0)" id="text-logo-10-path-0"  >
<path style="stroke: none; stroke-width: 0; stroke-dasharray: none; stroke-linecap: butt; stroke-dashoffset: 0; stroke-linejoin: miter; stroke-miterlimit: 4; fill: rgb(89,99,27); fill-rule: nonzero; opacity: 1;"  paint-order="stroke"  transform=" translate(-20.02, 18.2)" d="M 26.52 0 L 37.44 0 L 37.44 -36.4 L 28.6 -36.4 L 28.6 -11.28 L 13.52 -36.4 L 2.6 -36.4 L 2.6 0 L 11.44 0 L 11.44 -25.12 Z" stroke-linecap="round" />
</g>
</g>
</g>
<g transform="matrix(1.375264780201191 1.3414465643214732 -1.3414465643214735 1.3752647802011913 878.1589574980381 316.75198543381333)" id="text-logo-11"  >
<g style=""  paint-order="stroke"   >
		<g transform="matrix(1 0 0 1 0 0)" id="text-logo-11-path-0"  >
<path style="stroke: none; stroke-width: 0; stroke-dasharray: none; stroke-linecap: butt; stroke-dashoffset: 0; stroke-linejoin: miter; stroke-miterlimit: 4; fill: rgb(89,99,27); fill-rule: nonzero; opacity: 1;"  paint-order="stroke"  transform=" translate(0, 0)" d="" stroke-linecap="round" />
</g>
</g>
</g>
<g transform="matrix(1.105944764620247 1.5708972844208444 -1.5708972844208444 1.105944764620247 938.9435879389802 335.8291120245749)" id="text-logo-12"  >
<g style=""  paint-order="stroke"   >
		<g transform="matrix(1 0 0 1 0 0)" id="text-logo-12-path-0"  >
<path style="stroke: none; stroke-width: 0; stroke-dasharray: none; stroke-linecap: butt; stroke-dashoffset: 0; stroke-linejoin: miter; stroke-miterlimit: 4; fill: rgb(89,99,27); fill-rule: nonzero; opacity: 1;"  paint-order="stroke"  transform=" translate(-20.905, 18.2)" d="M 21.37 0.52 C 33.23 0.52 39.16 -3.8 39.16 -12.43 L 30.32 -12.43 C 30.32 -8.68 26.16 -6.76 21.37 -6.76 C 14.66 -6.76 11.44 -10.19 11.44 -18.25 C 11.44 -26 14.46 -29.64 21.37 -29.64 C 26.42 -29.64 30.37 -28.08 30.37 -23.92 L 39.21 -23.92 C 38.58 -32.6 31.77 -36.92 21.37 -36.92 C 8.68 -36.92 2.6 -31.2 2.6 -18.25 C 2.6 -5.56 8.32 0.52 21.37 0.52 Z" stroke-linecap="round" />
</g>
</g>
</g>
<g transform="matrix(0.6207067437568256 1.8181185986746065 -1.8181185986746065 0.6207067437568256 985.9058334475142 427.99270726132295)" id="text-logo-13"  >
<g style=""  paint-order="stroke"   >
		<g transform="matrix(1 0 0 1 0 0)" id="text-logo-13-path-0"  >
<path style="stroke: none; stroke-width: 0; stroke-dasharray: none; stroke-linecap: butt; stroke-dashoffset: 0; stroke-linejoin: miter; stroke-miterlimit: 4; fill: rgb(89,99,27); fill-rule: nonzero; opacity: 1;"  paint-order="stroke"  transform=" translate(-21.060000000000002, 18.2)" d="M 30.68 0 L 39.52 0 L 25.74 -36.4 L 16.38 -36.4 L 2.6 0 L 11.44 0 L 13.99 -6.76 L 28.13 -6.76 Z M 25.38 -14.04 L 16.74 -14.04 L 21.06 -25.43 Z" stroke-linecap="round" />
</g>
</g>
</g>
<g transform="matrix(0.11547055600086328 1.9176805394247938 -1.917680539424794 0.1154705560008633 1004.8063207775403 523.9107202736767)" id="text-logo-14"  >
<g style=""  paint-order="stroke"   >
		<g transform="matrix(1 0 0 1 0 0)" id="text-logo-14-path-0"  >
<path style="stroke: none; stroke-width: 0; stroke-dasharray: none; stroke-linecap: butt; stroke-dashoffset: 0; stroke-linejoin: miter; stroke-miterlimit: 4; fill: rgb(89,99,27); fill-rule: nonzero; opacity: 1;"  paint-order="stroke"  transform=" translate(-18.46, 18.2)" d="M 2.6 0 L 11.44 0 L 11.44 -11.96 L 18.04 -11.96 L 24.96 0 L 34.32 0 L 26.94 -12.79 C 31.41 -14.35 33.64 -18.2 33.64 -24.28 C 33.64 -32.34 29.59 -36.4 21.48 -36.4 L 2.6 -36.4 Z M 21.42 -19.24 L 11.44 -19.24 L 11.44 -29.12 L 21.42 -29.12 C 23.56 -29.12 24.8 -27.51 24.8 -24.23 C 24.8 -20.9 23.66 -19.24 21.42 -19.24 Z" stroke-linecap="round" />
</g>
</g>
</g>
<g transform="matrix(-0.35482563973361275 1.8881024511342992 -1.8881024511342992 -0.35482563973361275 999.1946616471779 613.1915274720684)" id="text-logo-15"  >
<g style=""  paint-order="stroke"   >
		<g transform="matrix(1 0 0 1.0000000000000002 0 0)" id="text-logo-15-path-0"  >
<path style="stroke: none; stroke-width: 0; stroke-dasharray: none; stroke-linecap: butt; stroke-dashoffset: 0; stroke-linejoin: miter; stroke-miterlimit: 4; fill: rgb(89,99,27); fill-rule: nonzero; opacity: 1;"  paint-order="stroke"  transform=" translate(-17.42, 18.2)" d="M 2.6 0 L 32.24 0 L 32.24 -7.28 L 11.44 -7.28 L 11.44 -14.56 L 27.04 -14.56 L 27.04 -21.84 L 11.44 -21.84 L 11.44 -29.12 L 32.24 -29.12 L 32.24 -36.4 L 2.6 -36.4 Z" stroke-linecap="round" />
</g>
</g>
</g>
<g transform="matrix(1.9211538461538462 0 0 1.9211538461538462 643.6064047273808 762.6217976409623)" id="tagline-cb7e03db-995e-4063-bdd2-3bc73b2211ba-logo"  >
<g style=""  paint-order="stroke"   >
		<g transform="matrix(1 0 0 1 0 0)" id="tagline-cb7e03db-995e-4063-bdd2-3bc73b2211ba-logo-path-0"  >
<path style="stroke: none; stroke-width: 0; stroke-dasharray: none; stroke-linecap: butt; stroke-dashoffset: 0; stroke-linejoin: miter; stroke-miterlimit: 4; fill: rgb(94,103,28); fill-rule: nonzero; opacity: 1;"  paint-order="stroke"  transform=" translate(-307.96999999999997, 11.515)" d="M 4.69 0.17 Q 4.06 0.17 3.63 -0.26 Q 3.2 -0.69 3.2 -1.32 L 3.2 -1.32 L 3.2 -21.68 Q 3.2 -22.31 3.63 -22.75 Q 4.06 -23.2 4.69 -23.2 L 4.69 -23.2 Q 5.31 -23.2 5.76 -22.75 Q 6.2 -22.31 6.2 -21.68 L 6.2 -21.68 L 6.2 -12.9 L 18.71 -12.9 L 18.71 -21.68 Q 18.71 -22.31 19.14 -22.75 Q 19.57 -23.2 20.2 -23.2 L 20.2 -23.2 Q 20.82 -23.2 21.27 -22.75 Q 21.71 -22.31 21.71 -21.68 L 21.71 -21.68 L 21.71 -1.32 Q 21.71 -0.69 21.27 -0.26 Q 20.82 0.17 20.2 0.17 L 20.2 0.17 Q 19.57 0.17 19.14 -0.26 Q 18.71 -0.69 18.71 -1.32 L 18.71 -1.32 L 18.71 -10.1 L 6.2 -10.1 L 6.2 -1.32 Q 6.2 -0.69 5.76 -0.26 Q 5.31 0.17 4.69 0.17 L 4.69 0.17 Z M 35.08 0.17 Q 34.42 0.17 34.01 -0.26 Q 33.59 -0.69 33.59 -1.32 L 33.59 -1.32 Q 33.59 -1.58 33.76 -1.98 L 33.76 -1.98 L 42.17 -21.85 Q 42.44 -22.44 42.92 -22.82 Q 43.4 -23.2 44.09 -23.2 L 44.09 -23.2 L 44.42 -23.2 Q 45.11 -23.2 45.59 -22.82 Q 46.07 -22.44 46.33 -21.85 L 46.33 -21.85 L 54.75 -1.98 Q 54.91 -1.58 54.91 -1.32 L 54.91 -1.32 Q 54.91 -0.69 54.5 -0.26 Q 54.09 0.17 53.43 0.17 L 53.43 0.17 Q 52.97 0.17 52.59 -0.08 Q 52.21 -0.33 52.01 -0.76 L 52.01 -0.76 L 49.86 -5.91 L 38.64 -5.91 L 36.5 -0.76 Q 36.3 -0.33 35.92 -0.08 Q 35.54 0.17 35.08 0.17 L 35.08 0.17 Z M 44.25 -19.37 L 39.8 -8.65 L 48.71 -8.65 L 44.25 -19.37 Z M 68.28 0.17 Q 67.65 0.17 67.22 -0.26 Q 66.79 -0.69 66.79 -1.32 L 66.79 -1.32 L 66.79 -21.52 Q 66.79 -22.14 67.22 -22.59 Q 67.65 -23.03 68.28 -23.03 L 68.28 -23.03 L 75.97 -23.03 Q 80.45 -23.03 82.7 -21.19 Q 84.94 -19.34 84.94 -16.34 L 84.94 -16.34 Q 84.94 -14.36 83.84 -12.72 Q 82.73 -11.09 80.62 -10.36 L 80.62 -10.36 Q 83 -9.74 83.87 -7.41 Q 84.74 -5.08 84.74 -2.84 L 84.74 -2.84 L 84.74 -1.32 Q 84.74 -0.69 84.32 -0.26 Q 83.89 0.17 83.26 0.17 L 83.26 0.17 Q 82.57 0.17 82.15 -0.25 Q 81.74 -0.66 81.74 -1.32 L 81.74 -1.32 L 81.74 -2.31 Q 81.74 -3.96 81.44 -5.36 Q 81.15 -6.77 80.03 -7.87 Q 78.9 -8.98 76.63 -8.98 L 76.63 -8.98 L 69.8 -8.98 L 69.8 -1.32 Q 69.8 -0.69 69.35 -0.26 Q 68.9 0.17 68.28 0.17 L 68.28 0.17 Z M 69.8 -11.81 L 75.77 -11.81 Q 78.61 -11.81 80.27 -12.94 Q 81.94 -14.06 81.94 -16.1 L 81.94 -16.1 Q 81.94 -18.08 80.5 -19.14 Q 79.07 -20.2 75.6 -20.2 L 75.6 -20.2 L 69.8 -20.2 L 69.8 -11.81 Z M 98.8 0 Q 98.18 0 97.75 -0.43 Q 97.32 -0.86 97.32 -1.49 L 97.32 -1.49 L 97.32 -21.52 Q 97.32 -22.14 97.75 -22.59 Q 98.18 -23.03 98.8 -23.03 L 98.8 -23.03 L 105.44 -23.03 Q 109.2 -23.03 111.82 -21.37 Q 114.44 -19.7 115.76 -17.06 Q 117.08 -14.42 117.08 -11.52 L 117.08 -11.52 Q 117.08 -8.61 115.76 -5.97 Q 114.44 -3.33 111.82 -1.67 Q 109.2 0 105.44 0 L 105.44 0 L 98.8 0 Z M 100.32 -2.81 L 105.07 -2.81 Q 107.78 -2.81 109.82 -3.91 Q 111.87 -5.02 112.99 -6.98 Q 114.11 -8.94 114.11 -11.52 L 114.11 -11.52 Q 114.11 -14.09 112.99 -16.05 Q 111.87 -18.02 109.82 -19.12 Q 107.78 -20.23 105.07 -20.23 L 105.07 -20.23 L 100.32 -20.23 L 100.32 -2.81 Z M 150.97 0.17 Q 150.31 0.17 149.8 -0.21 Q 149.29 -0.59 149.03 -1.32 L 149.03 -1.32 L 142.56 -21.19 Q 142.46 -21.55 142.46 -21.75 L 142.46 -21.75 Q 142.43 -22.37 142.84 -22.79 Q 143.25 -23.2 143.91 -23.2 L 143.91 -23.2 Q 144.44 -23.2 144.84 -22.87 Q 145.23 -22.54 145.4 -22.01 L 145.4 -22.01 L 150.94 -3.8 L 156.52 -21.95 Q 156.68 -22.51 157.16 -22.85 Q 157.64 -23.2 158.24 -23.2 L 158.24 -23.2 Q 158.83 -23.2 159.31 -22.85 Q 159.79 -22.51 159.95 -21.95 L 159.95 -21.95 L 165.53 -3.8 L 171.07 -22.01 Q 171.24 -22.54 171.63 -22.87 Q 172.03 -23.2 172.56 -23.2 L 172.56 -23.2 Q 173.22 -23.2 173.63 -22.79 Q 174.04 -22.37 174.01 -21.75 L 174.01 -21.75 Q 174.01 -21.55 173.91 -21.19 L 173.91 -21.19 L 167.44 -1.32 Q 167.18 -0.59 166.67 -0.21 Q 166.16 0.17 165.5 0.17 L 165.5 0.17 Q 164.84 0.17 164.29 -0.25 Q 163.75 -0.66 163.55 -1.32 L 163.55 -1.32 L 158.24 -18.15 L 152.92 -1.32 Q 152.72 -0.66 152.18 -0.25 Q 151.64 0.17 150.97 0.17 L 150.97 0.17 Z M 195.33 0.33 Q 191.86 0.33 189.25 -1.19 Q 186.65 -2.71 185.23 -5.38 Q 183.81 -8.05 183.74 -11.52 L 183.74 -11.52 Q 183.81 -14.98 185.23 -17.66 Q 186.65 -20.33 189.25 -21.85 Q 191.86 -23.36 195.33 -23.36 L 195.33 -23.36 Q 198.79 -23.36 201.38 -21.85 Q 203.97 -20.33 205.41 -17.64 Q 206.84 -14.95 206.91 -11.52 L 206.91 -11.52 Q 206.84 -8.09 205.41 -5.4 Q 203.97 -2.71 201.38 -1.19 Q 198.79 0.33 195.33 0.33 L 195.33 0.33 Z M 195.33 -2.48 Q 197.97 -2.48 199.91 -3.66 Q 201.86 -4.85 202.88 -6.9 Q 203.91 -8.94 203.91 -11.52 L 203.91 -11.52 Q 203.91 -14.09 202.88 -16.14 Q 201.86 -18.18 199.91 -19.37 Q 197.97 -20.56 195.33 -20.56 L 195.33 -20.56 Q 192.65 -20.56 190.72 -19.37 Q 188.79 -18.18 187.77 -16.14 Q 186.75 -14.09 186.75 -11.52 L 186.75 -11.52 Q 186.75 -8.94 187.77 -6.9 Q 188.79 -4.85 190.72 -3.66 Q 192.65 -2.48 195.33 -2.48 L 195.33 -2.48 Z M 220.44 0.17 Q 219.81 0.17 219.38 -0.26 Q 218.95 -0.69 218.95 -1.32 L 218.95 -1.32 L 218.95 -21.52 Q 218.95 -22.14 219.38 -22.59 Q 219.81 -23.03 220.44 -23.03 L 220.44 -23.03 L 228.13 -23.03 Q 232.62 -23.03 234.86 -21.19 Q 237.1 -19.34 237.1 -16.34 L 237.1 -16.34 Q 237.1 -14.36 236 -12.72 Q 234.89 -11.09 232.78 -10.36 L 232.78 -10.36 Q 235.16 -9.74 236.03 -7.41 Q 236.91 -5.08 236.91 -2.84 L 236.91 -2.84 L 236.91 -1.32 Q 236.91 -0.69 236.48 -0.26 Q 236.05 0.17 235.42 0.17 L 235.42 0.17 Q 234.73 0.17 234.32 -0.25 Q 233.9 -0.66 233.9 -1.32 L 233.9 -1.32 L 233.9 -2.31 Q 233.9 -3.96 233.61 -5.36 Q 233.31 -6.77 232.19 -7.87 Q 231.07 -8.98 228.79 -8.98 L 228.79 -8.98 L 221.96 -8.98 L 221.96 -1.32 Q 221.96 -0.69 221.51 -0.26 Q 221.07 0.17 220.44 0.17 L 220.44 0.17 Z M 221.96 -11.81 L 227.93 -11.81 Q 230.77 -11.81 232.44 -12.94 Q 234.1 -14.06 234.1 -16.1 L 234.1 -16.1 Q 234.1 -18.08 232.67 -19.14 Q 231.23 -20.2 227.77 -20.2 L 227.77 -20.2 L 221.96 -20.2 L 221.96 -11.81 Z M 250.97 0.17 Q 250.34 0.17 249.91 -0.26 Q 249.48 -0.69 249.48 -1.32 L 249.48 -1.32 L 249.48 -21.68 Q 249.48 -22.31 249.91 -22.75 Q 250.34 -23.2 250.97 -23.2 L 250.97 -23.2 Q 251.59 -23.2 252.04 -22.75 Q 252.48 -22.31 252.48 -21.68 L 252.48 -21.68 L 252.48 -11.19 L 263.77 -22.67 Q 264.23 -23.2 264.89 -23.2 L 264.89 -23.2 Q 265.45 -23.2 265.86 -22.82 Q 266.28 -22.44 266.28 -21.88 L 266.28 -21.88 Q 266.28 -21.22 265.91 -20.86 L 265.91 -20.86 L 258.29 -13.27 L 267.04 -2.24 Q 267.4 -1.78 267.4 -1.29 L 267.4 -1.29 Q 267.43 -0.69 267 -0.26 Q 266.57 0.17 265.95 0.17 L 265.95 0.17 Q 265.19 0.17 264.76 -0.43 L 264.76 -0.43 L 256.25 -11.29 L 252.48 -7.49 L 252.48 -1.32 Q 252.48 -0.69 252.04 -0.26 Q 251.59 0.17 250.97 0.17 L 250.97 0.17 Z M 295.71 0 Q 295.09 0 294.66 -0.43 Q 294.23 -0.86 294.23 -1.49 L 294.23 -1.49 L 294.23 -21.52 Q 294.23 -22.14 294.66 -22.59 Q 295.09 -23.03 295.71 -23.03 L 295.71 -23.03 L 303.5 -23.03 Q 307.03 -23.03 308.96 -21.42 Q 310.89 -19.8 310.89 -17.06 L 310.89 -17.06 Q 310.89 -15.15 309.99 -13.88 Q 309.08 -12.61 307.66 -11.98 L 307.66 -11.98 Q 309.64 -11.35 310.91 -9.97 Q 312.18 -8.58 312.18 -6.47 L 312.18 -6.47 Q 312.18 -3.43 310.13 -1.72 Q 308.09 0 303.7 0 L 303.7 0 L 295.71 0 Z M 297.23 -13.07 L 302.71 -13.07 Q 305.65 -13.07 306.83 -14.06 Q 308.02 -15.05 308.02 -16.83 L 308.02 -16.83 Q 308.02 -18.38 306.75 -19.3 Q 305.48 -20.23 303.27 -20.23 L 303.27 -20.23 L 297.23 -20.23 L 297.23 -13.07 Z M 297.23 -2.81 L 303.4 -2.81 Q 306.6 -2.81 307.94 -3.8 Q 309.28 -4.79 309.28 -6.6 L 309.28 -6.6 Q 309.28 -10.36 303.44 -10.36 L 303.44 -10.36 L 297.23 -10.36 L 297.23 -2.81 Z M 325.61 0 Q 324.98 0 324.55 -0.43 Q 324.13 -0.86 324.13 -1.49 L 324.13 -1.49 L 324.13 -21.52 Q 324.13 -22.14 324.55 -22.59 Q 324.98 -23.03 325.61 -23.03 L 325.61 -23.03 L 338.84 -23.03 Q 339.44 -23.03 339.85 -22.62 Q 340.26 -22.21 340.26 -21.62 L 340.26 -21.62 Q 340.26 -21.02 339.85 -20.63 Q 339.44 -20.23 338.84 -20.23 L 338.84 -20.23 L 327.13 -20.23 L 327.13 -12.94 L 337.66 -12.94 Q 338.25 -12.94 338.66 -12.52 Q 339.07 -12.11 339.07 -11.52 L 339.07 -11.52 Q 339.07 -10.92 338.66 -10.53 Q 338.25 -10.13 337.66 -10.13 L 337.66 -10.13 L 327.13 -10.13 L 327.13 -2.81 L 338.84 -2.81 Q 339.44 -2.81 339.85 -2.39 Q 340.26 -1.98 340.26 -1.39 L 340.26 -1.39 Q 340.26 -0.79 339.85 -0.4 Q 339.44 0 338.84 0 L 338.84 0 L 325.61 0 Z M 352.14 0.17 Q 351.48 0.17 351.07 -0.26 Q 350.66 -0.69 350.66 -1.32 L 350.66 -1.32 Q 350.66 -1.58 350.82 -1.98 L 350.82 -1.98 L 359.24 -21.85 Q 359.5 -22.44 359.98 -22.82 Q 360.46 -23.2 361.15 -23.2 L 361.15 -23.2 L 361.48 -23.2 Q 362.17 -23.2 362.65 -22.82 Q 363.13 -22.44 363.4 -21.85 L 363.4 -21.85 L 371.81 -1.98 Q 371.98 -1.58 371.98 -1.32 L 371.98 -1.32 Q 371.98 -0.69 371.56 -0.26 Q 371.15 0.17 370.49 0.17 L 370.49 0.17 Q 370.03 0.17 369.65 -0.08 Q 369.27 -0.33 369.07 -0.76 L 369.07 -0.76 L 366.93 -5.91 L 355.71 -5.91 L 353.56 -0.76 Q 353.36 -0.33 352.98 -0.08 Q 352.6 0.17 352.14 0.17 L 352.14 0.17 Z M 361.32 -19.37 L 356.86 -8.65 L 365.77 -8.65 L 361.32 -19.37 Z M 388.64 0.17 Q 388.01 0.17 387.58 -0.26 Q 387.16 -0.69 387.16 -1.32 L 387.16 -1.32 L 387.16 -20.23 L 380.42 -20.23 Q 379.83 -20.23 379.43 -20.63 Q 379.04 -21.02 379.04 -21.62 L 379.04 -21.62 Q 379.04 -22.21 379.43 -22.62 Q 379.83 -23.03 380.42 -23.03 L 380.42 -23.03 L 396.86 -23.03 Q 397.45 -23.03 397.86 -22.62 Q 398.28 -22.21 398.28 -21.62 L 398.28 -21.62 Q 398.28 -21.02 397.86 -20.63 Q 397.45 -20.23 396.86 -20.23 L 396.86 -20.23 L 390.16 -20.23 L 390.16 -1.32 Q 390.16 -0.69 389.71 -0.26 Q 389.27 0.17 388.64 0.17 L 388.64 0.17 Z M 416.2 0.33 Q 412 0.33 408.34 -1.25 L 408.34 -1.25 Q 407.95 -1.42 407.68 -1.8 Q 407.42 -2.18 407.42 -2.61 L 407.42 -2.61 Q 407.42 -3.17 407.8 -3.58 Q 408.18 -3.99 408.77 -3.99 L 408.77 -3.99 Q 409.1 -3.99 409.4 -3.86 L 409.4 -3.86 Q 412.43 -2.51 415.9 -2.51 L 415.9 -2.51 Q 421.67 -2.51 421.67 -6.3 L 421.67 -6.3 Q 421.67 -7.29 420.93 -7.95 Q 420.19 -8.61 419.1 -8.99 Q 418.01 -9.37 416 -9.9 L 416 -9.9 Q 413.32 -10.59 411.67 -11.24 Q 410.02 -11.88 408.84 -13.17 Q 407.65 -14.45 407.65 -16.6 L 407.65 -16.6 Q 407.65 -18.48 408.64 -20.01 Q 409.63 -21.55 411.56 -22.46 Q 413.49 -23.36 416.2 -23.36 L 416.2 -23.36 Q 419.83 -23.36 422.76 -22.28 L 422.76 -22.28 Q 423.69 -21.95 423.69 -20.96 L 423.69 -20.96 Q 423.69 -20.43 423.32 -20 Q 422.96 -19.57 422.37 -19.57 L 422.37 -19.57 Q 422.17 -19.57 421.84 -19.7 L 421.84 -19.7 Q 419.26 -20.59 416.53 -20.59 L 416.53 -20.59 Q 413.92 -20.59 412.29 -19.6 Q 410.65 -18.61 410.65 -16.83 L 410.65 -16.83 Q 410.65 -15.64 411.43 -14.9 Q 412.2 -14.16 413.37 -13.74 Q 414.55 -13.33 416.56 -12.87 L 416.56 -12.87 Q 419.17 -12.24 420.77 -11.62 Q 422.37 -10.99 423.51 -9.67 Q 424.64 -8.35 424.64 -6.11 L 424.64 -6.11 Q 424.64 -4.26 423.59 -2.79 Q 422.53 -1.32 420.62 -0.49 Q 418.7 0.33 416.2 0.33 L 416.2 0.33 Z M 458.73 0.17 Q 458.11 0.17 457.68 -0.26 Q 457.25 -0.69 457.25 -1.32 L 457.25 -1.32 L 457.25 -20.23 L 450.52 -20.23 Q 449.92 -20.23 449.53 -20.63 Q 449.13 -21.02 449.13 -21.62 L 449.13 -21.62 Q 449.13 -22.21 449.53 -22.62 Q 449.92 -23.03 450.52 -23.03 L 450.52 -23.03 L 466.95 -23.03 Q 467.54 -23.03 467.96 -22.62 Q 468.37 -22.21 468.37 -21.62 L 468.37 -21.62 Q 468.37 -21.02 467.96 -20.63 Q 467.54 -20.23 466.95 -20.23 L 466.95 -20.23 L 460.25 -20.23 L 460.25 -1.32 Q 460.25 -0.69 459.81 -0.26 Q 459.36 0.17 458.73 0.17 L 458.73 0.17 Z M 476.92 0.17 Q 476.26 0.17 475.84 -0.26 Q 475.43 -0.69 475.43 -1.32 L 475.43 -1.32 Q 475.43 -1.58 475.6 -1.98 L 475.6 -1.98 L 484.01 -21.85 Q 484.27 -22.44 484.75 -22.82 Q 485.23 -23.2 485.92 -23.2 L 485.92 -23.2 L 486.25 -23.2 Q 486.95 -23.2 487.43 -22.82 Q 487.9 -22.44 488.17 -21.85 L 488.17 -21.85 L 496.58 -1.98 Q 496.75 -1.58 496.75 -1.32 L 496.75 -1.32 Q 496.75 -0.69 496.34 -0.26 Q 495.92 0.17 495.26 0.17 L 495.26 0.17 Q 494.8 0.17 494.42 -0.08 Q 494.04 -0.33 493.84 -0.76 L 493.84 -0.76 L 491.7 -5.91 L 480.48 -5.91 L 478.33 -0.76 Q 478.14 -0.33 477.76 -0.08 Q 477.38 0.17 476.92 0.17 L 476.92 0.17 Z M 486.09 -19.37 L 481.63 -8.65 L 490.54 -8.65 L 486.09 -19.37 Z M 510.71 0 Q 509.85 0 509.24 -0.61 Q 508.63 -1.22 508.63 -2.08 L 508.63 -2.08 L 508.63 -21.68 Q 508.63 -22.31 509.06 -22.75 Q 509.49 -23.2 510.11 -23.2 L 510.11 -23.2 Q 510.74 -23.2 511.19 -22.75 Q 511.63 -22.31 511.63 -21.68 L 511.63 -21.68 L 511.63 -3 L 522.42 -3 Q 523.05 -3 523.5 -2.56 Q 523.94 -2.11 523.94 -1.49 L 523.94 -1.49 Q 523.94 -0.86 523.5 -0.43 Q 523.05 0 522.42 0 L 522.42 0 L 510.71 0 Z M 536.15 0 Q 535.52 0 535.09 -0.43 Q 534.67 -0.86 534.67 -1.49 L 534.67 -1.49 L 534.67 -21.52 Q 534.67 -22.14 535.09 -22.59 Q 535.52 -23.03 536.15 -23.03 L 536.15 -23.03 L 549.38 -23.03 Q 549.98 -23.03 550.39 -22.62 Q 550.8 -22.21 550.8 -21.62 L 550.8 -21.62 Q 550.8 -21.02 550.39 -20.63 Q 549.98 -20.23 549.38 -20.23 L 549.38 -20.23 L 537.67 -20.23 L 537.67 -12.94 L 548.2 -12.94 Q 548.79 -12.94 549.2 -12.52 Q 549.61 -12.11 549.61 -11.52 L 549.61 -11.52 Q 549.61 -10.92 549.2 -10.53 Q 548.79 -10.13 548.2 -10.13 L 548.2 -10.13 L 537.67 -10.13 L 537.67 -2.81 L 549.38 -2.81 Q 549.98 -2.81 550.39 -2.39 Q 550.8 -1.98 550.8 -1.39 L 550.8 -1.39 Q 550.8 -0.79 550.39 -0.4 Q 549.98 0 549.38 0 L 549.38 0 L 536.15 0 Z M 564.23 0.17 Q 563.61 0.17 563.18 -0.26 Q 562.75 -0.69 562.75 -1.32 L 562.75 -1.32 L 562.75 -21.02 Q 562.75 -21.91 563.38 -22.56 Q 564 -23.2 564.89 -23.2 L 564.89 -23.2 L 565.32 -23.2 Q 566.38 -23.2 567.14 -22.21 L 567.14 -22.21 L 579.84 -3.86 L 579.84 -21.68 Q 579.84 -22.31 580.27 -22.75 Q 580.7 -23.2 581.33 -23.2 L 581.33 -23.2 Q 581.95 -23.2 582.4 -22.75 Q 582.85 -22.31 582.85 -21.68 L 582.85 -21.68 L 582.85 -1.98 Q 582.85 -1.09 582.2 -0.46 Q 581.56 0.17 580.67 0.17 L 580.67 0.17 L 580.27 0.17 Q 579.74 0.17 579.28 -0.08 Q 578.82 -0.33 578.52 -0.73 L 578.52 -0.73 L 565.75 -19.17 L 565.75 -1.32 Q 565.75 -0.69 565.31 -0.26 Q 564.86 0.17 564.23 0.17 L 564.23 0.17 Z M 603.11 0.17 Q 602.48 0.17 602.05 -0.26 Q 601.62 -0.69 601.62 -1.32 L 601.62 -1.32 L 601.62 -20.23 L 594.89 -20.23 Q 594.3 -20.23 593.9 -20.63 Q 593.5 -21.02 593.5 -21.62 L 593.5 -21.62 Q 593.5 -22.21 593.9 -22.62 Q 594.3 -23.03 594.89 -23.03 L 594.89 -23.03 L 611.32 -23.03 Q 611.92 -23.03 612.33 -22.62 Q 612.74 -22.21 612.74 -21.62 L 612.74 -21.62 Q 612.74 -21.02 612.33 -20.63 Q 611.92 -20.23 611.32 -20.23 L 611.32 -20.23 L 604.63 -20.23 L 604.63 -1.32 Q 604.63 -0.69 604.18 -0.26 Q 603.73 0.17 603.11 0.17 L 603.11 0.17 Z" stroke-linecap="round" />
</g>
</g>
</g>
</svg>